<svg xmlns="http://www.w3.org/2000/svg" width="400" height="400" viewBox="0 0 400 400">
<g>
<path d="M 0.00 0.00 L 400.00 0.00 L 400.00 400.00 L 0.00 400.00 ZM 44.53 238.98 C47.26,239.47 54.45,239.76 60.50,239.63 C70.96,239.40 71.81,239.22 77.72,235.95 C83.93,232.50 89.00,227.10 89.00,223.93 C89.00,223.01 89.69,220.29 90.54,217.88 C91.82,214.26 91.88,212.65 90.91,208.51 C89.02,200.48 83.19,191.00 80.14,191.00 C79.40,191.00 75.80,189.46 72.14,187.58 C68.49,185.70 64.23,183.67 62.68,183.07 C60.82,182.35 59.97,181.39 60.19,180.24 C60.68,177.62 66.39,177.51 73.19,179.99 C76.42,181.16 80.28,181.99 81.78,181.81 C84.30,181.52 84.54,181.10 85.00,176.00 C85.54,170.03 87.20,168.99 88.00,174.11 C88.51,177.37 88.75,177.58 95.36,180.41 C98.65,181.83 99.11,182.39 98.49,184.29 C97.54,187.18 97.49,199.55 98.36,214.27 C99.41,232.08 102.50,236.52 115.50,238.91 C123.70,240.42 136.12,239.95 140.77,237.95 C143.37,236.83 144.44,236.79 145.98,237.76 C147.23,238.54 152.18,238.95 159.89,238.93 C169.59,238.89 172.10,238.58 173.18,237.29 C174.21,236.04 174.42,230.96 174.14,214.07 C173.85,196.26 174.05,191.81 175.33,188.76 C176.90,185.00 177.23,184.83 185.50,183.48 C186.33,183.34 187.07,183.19 187.74,183.06 C189.62,182.69 190.90,182.44 191.77,182.92 C193.58,183.93 193.60,188.17 193.65,201.27 C193.66,203.49 193.67,205.95 193.69,208.70 C193.81,225.69 194.26,235.62 194.99,236.98 C196.04,238.95 196.80,239.04 209.30,238.78 L 222.50 238.50 L 222.50 198.50 C222.50,160.96 222.39,158.52 220.75,158.79 C219.79,158.96 219.00,158.57 219.00,157.94 C219.00,157.13 215.20,156.88 205.75,157.08 C195.07,157.31 191.75,157.04 188.63,155.68 C183.74,153.56 183.52,153.57 178.30,156.10 C174.56,157.91 173.32,158.05 169.24,157.17 C163.03,155.82 149.24,156.31 145.74,158.00 C143.26,159.19 142.75,159.11 140.70,157.19 C138.76,155.37 137.65,155.14 133.34,155.65 C130.03,156.04 128.03,155.85 127.57,155.11 C127.18,154.48 126.83,150.13 126.80,145.43 C126.72,134.38 125.52,132.64 119.00,134.11 C116.53,134.67 112.47,135.48 110.00,135.92 C101.69,137.39 100.76,138.48 99.35,148.44 C98.55,154.01 98.30,154.44 95.34,155.20 C92.77,155.86 91.94,156.79 90.84,160.25 C89.27,165.19 86.00,166.78 86.00,162.59 C86.00,158.50 79.94,156.04 67.33,155.03 C61.23,154.54 55.50,154.57 53.67,155.10 C51.93,155.59 49.21,156.00 47.63,156.00 C45.73,156.00 43.41,157.20 40.87,159.50 C38.74,161.43 36.55,163.00 36.00,163.00 C35.45,163.00 35.00,163.49 35.00,164.10 C35.00,164.70 34.18,166.39 33.19,167.85 C28.36,174.92 27.86,184.94 31.92,193.33 C34.23,198.12 43.74,206.00 47.19,206.00 C48.12,206.00 49.12,206.39 49.42,206.87 C49.72,207.35 51.21,208.02 52.73,208.37 C54.25,208.71 57.08,210.37 59.00,212.05 C62.38,215.01 62.43,215.16 60.56,216.56 C58.09,218.39 55.89,218.39 53.44,216.53 C52.37,215.72 50.24,215.05 48.70,215.03 C47.16,215.01 44.55,214.30 42.89,213.45 C41.17,212.56 38.12,212.02 35.74,212.20 L 31.60 212.50 L 29.46 221.32 C27.37,229.92 27.36,230.19 29.17,232.49 C31.28,235.17 37.25,237.69 44.53,238.98 ZM 229.62 266.19 C230.39,267.44 241.52,266.72 250.04,264.88 C258.12,263.14 259.02,261.68 258.30,251.48 C257.92,246.12 258.09,242.59 258.77,241.77 C259.44,240.97 262.88,240.38 267.91,240.20 C276.68,239.88 280.40,238.69 287.41,233.96 C292.37,230.61 295.00,227.48 295.00,224.93 C295.00,224.04 295.86,222.53 296.91,221.58 C297.96,220.63 299.10,218.65 299.44,217.18 C300.44,212.92 302.17,209.00 303.06,209.00 C303.51,209.00 304.18,211.03 304.55,213.51 C304.93,215.99 305.63,218.27 306.12,218.57 C306.60,218.87 307.00,219.99 307.00,221.05 C307.00,224.53 316.78,234.27 322.91,236.89 C327.86,239.02 330.09,239.30 342.50,239.39 C358.35,239.51 367.97,237.50 370.58,233.52 C372.08,231.22 371.56,222.47 369.86,221.41 C369.39,221.12 369.00,219.57 369.00,217.98 C369.00,213.29 363.95,211.61 358.33,214.42 C356.77,215.19 353.19,216.35 350.37,216.98 C346.08,217.94 344.60,217.86 341.40,216.52 C339.30,215.64 336.77,214.20 335.79,213.31 C334.01,211.70 333.31,208.06 334.75,207.94 C344.28,207.13 359.06,207.20 361.13,208.06 C363.00,208.83 364.89,208.84 367.72,208.08 C374.07,206.37 375.09,202.10 372.93,186.32 C372.34,182.02 371.28,177.60 370.58,176.50 C369.88,175.40 368.56,172.25 367.65,169.50 C366.57,166.24 365.04,163.90 363.25,162.79 C361.74,161.84 359.38,160.16 358.00,159.04 C352.71,154.74 330.43,153.61 323.00,157.28 C318.21,159.64 311.00,165.92 311.00,167.73 C311.00,168.54 309.88,170.55 308.50,172.18 C307.12,173.82 306.00,176.14 306.00,177.35 C306.00,180.06 303.21,184.25 301.93,183.46 C301.42,183.14 301.00,181.79 301.00,180.46 C301.00,177.42 298.08,170.00 296.89,170.00 C296.40,170.00 296.00,169.09 296.00,167.97 C296.00,164.77 287.24,157.22 281.50,155.46 C275.61,153.67 267.70,154.32 261.54,157.12 C256.35,159.48 255.45,159.45 252.84,156.84 C251.00,155.00 250.26,154.84 247.86,155.75 C246.30,156.33 242.44,156.59 239.27,156.32 C236.10,156.04 232.46,156.22 231.18,156.71 L 228.86 157.59 L 228.91 211.36 C228.94,240.93 229.26,265.60 229.62,266.19 ZM 201.21 151.33 C211.20,156.26 223.82,149.14 223.94,138.50 C223.98,134.68 221.88,128.63 219.41,125.46 C216.77,122.06 207.86,121.02 201.65,123.39 C196.30,125.43 194.90,128.12 194.26,137.50 C193.72,145.45 195.19,148.36 201.21,151.33 ZM 144.76 197.78 C144.51,231.35 144.14,235.81 141.80,233.46 C141.48,233.14 141.37,229.81 141.57,226.04 C141.88,219.93 141.66,218.93 139.49,216.58 C137.38,214.31 136.54,214.05 133.05,214.61 C129.31,215.21 128.97,215.06 127.95,212.38 C127.35,210.80 127.05,208.52 127.28,207.32 C127.51,206.11 127.37,200.04 126.97,193.81 C126.28,183.26 126.37,182.38 128.23,180.75 C129.32,179.79 131.78,179.00 133.68,179.00 C139.85,179.00 140.71,177.91 141.49,169.09 C142.05,162.83 142.50,161.25 143.61,161.68 C144.80,162.14 144.98,167.88 144.76,197.78 ZM 267.38 213.69 C264.11,217.17 262.63,217.60 259.75,215.92 C258.21,215.02 258.00,213.16 258.00,200.40 C258.00,184.29 259.01,180.54 263.67,179.37 C267.25,178.47 268.94,179.76 271.08,185.04 C274.51,193.50 272.62,208.12 267.38,213.69 ZM 341.56 188.00 C340.24,188.00 338.56,188.21 337.83,188.47 C334.95,189.50 333.10,187.15 333.70,183.24 C334.77,176.27 337.82,175.12 342.44,179.93 C345.94,183.59 345.47,188.00 341.56,188.00 Z" fill="rgb(104,91,253)"/>
<path d="M 44.53 238.98 C37.25,237.69 31.28,235.17 29.17,232.49 C27.36,230.19 27.37,229.92 29.46,221.32 L 31.60 212.50 L 35.74 212.20 C38.12,212.02 41.17,212.56 42.89,213.45 C44.55,214.30 47.16,215.01 48.70,215.03 C50.24,215.05 52.37,215.72 53.44,216.53 C55.89,218.39 58.09,218.39 60.56,216.56 C62.43,215.16 62.38,215.01 59.00,212.05 C57.08,210.37 54.25,208.71 52.73,208.37 C51.21,208.02 49.72,207.35 49.42,206.87 C49.12,206.39 48.12,206.00 47.19,206.00 C43.74,206.00 34.23,198.12 31.92,193.33 C27.86,184.94 28.36,174.92 33.19,167.85 C34.18,166.39 35.00,164.70 35.00,164.10 C35.00,163.49 35.45,163.00 36.00,163.00 C36.55,163.00 38.74,161.43 40.87,159.50 C43.41,157.20 45.73,156.00 47.63,156.00 C49.21,156.00 51.93,155.59 53.67,155.10 C55.50,154.57 61.23,154.54 67.33,155.03 C79.94,156.04 86.00,158.50 86.00,162.59 C86.00,166.78 89.27,165.19 90.84,160.25 C91.94,156.79 92.77,155.86 95.34,155.20 C98.30,154.44 98.55,154.01 99.35,148.44 C100.76,138.48 101.69,137.39 110.00,135.92 C112.47,135.48 116.53,134.67 119.00,134.11 C125.52,132.64 126.72,134.38 126.80,145.43 C126.83,150.13 127.18,154.48 127.57,155.11 C128.03,155.85 130.03,156.04 133.34,155.65 C137.65,155.14 138.76,155.37 140.70,157.19 C142.75,159.11 143.26,159.19 145.74,158.00 C149.24,156.31 163.03,155.82 169.24,157.17 C173.32,158.05 174.56,157.91 178.30,156.10 C183.52,153.57 183.74,153.56 188.63,155.68 C191.75,157.04 195.07,157.31 205.75,157.08 C215.20,156.88 219.00,157.13 219.00,157.94 C219.00,158.57 219.79,158.96 220.75,158.79 C220.99,158.75 221.20,158.77 221.37,158.95 L 209.00 159.22 L 196.50 159.50 L 196.24 197.00 C196.09,217.62 196.19,235.06 196.46,235.75 C196.80,236.65 200.24,237.00 208.95,237.00 L 220.95 237.00 L 221.23 197.97 L 221.50 159.10 C222.43,160.55 222.50,167.75 222.50,198.50 L 222.50 238.50 L 209.30 238.78 C196.80,239.04 196.04,238.95 194.99,236.98 C194.26,235.62 193.81,225.69 193.69,208.70 C193.67,205.95 193.66,203.49 193.65,201.27 C193.60,188.17 193.58,183.93 191.77,182.92 C190.90,182.44 189.62,182.69 187.74,183.06 C187.07,183.19 186.33,183.34 185.50,183.48 C177.23,184.83 176.90,185.00 175.33,188.76 C174.05,191.81 173.85,196.26 174.14,214.07 C174.42,230.96 174.21,236.04 173.18,237.29 C172.10,238.58 169.59,238.89 159.89,238.93 C152.18,238.95 147.23,238.54 145.98,237.76 C144.44,236.79 143.37,236.83 140.77,237.95 C136.12,239.95 123.70,240.42 115.50,238.91 C102.50,236.52 99.41,232.08 98.36,214.27 C97.49,199.55 97.54,187.18 98.49,184.29 C99.11,182.39 98.65,181.83 95.36,180.41 C88.75,177.58 88.51,177.37 88.00,174.11 C87.20,168.99 85.54,170.03 85.00,176.00 C84.54,181.10 84.30,181.52 81.78,181.81 C80.28,181.99 76.42,181.16 73.19,179.99 C66.39,177.51 60.68,177.62 60.19,180.24 C59.97,181.39 60.82,182.35 62.68,183.07 C64.23,183.67 68.49,185.70 72.14,187.58 C75.80,189.46 79.40,191.00 80.14,191.00 C83.19,191.00 89.02,200.48 90.91,208.51 C91.88,212.65 91.82,214.26 90.54,217.88 C89.69,220.29 89.00,223.01 89.00,223.93 C89.00,227.10 83.93,232.50 77.72,235.95 C71.81,239.22 70.96,239.40 60.50,239.63 C54.45,239.76 47.26,239.47 44.53,238.98 ZM 229.62 266.19 C229.26,265.60 228.94,240.93 228.91,211.36 L 228.86 157.59 L 231.18 156.71 C232.46,156.22 236.10,156.04 239.27,156.32 C242.44,156.59 246.30,156.33 247.86,155.75 C250.26,154.84 251.00,155.00 252.84,156.84 C255.45,159.45 256.35,159.48 261.54,157.12 C267.70,154.32 275.61,153.67 281.50,155.46 C287.24,157.22 296.00,164.77 296.00,167.97 C296.00,169.09 296.40,170.00 296.89,170.00 C298.08,170.00 301.00,177.42 301.00,180.46 C301.00,181.79 301.42,183.14 301.93,183.46 C303.21,184.25 306.00,180.06 306.00,177.35 C306.00,176.14 307.12,173.82 308.50,172.18 C309.88,170.55 311.00,168.54 311.00,167.73 C311.00,165.92 318.21,159.64 323.00,157.28 C330.43,153.61 352.71,154.74 358.00,159.04 C359.38,160.16 361.74,161.84 363.25,162.79 C365.04,163.90 366.57,166.24 367.65,169.50 C368.56,172.25 369.88,175.40 370.58,176.50 C371.28,177.60 372.34,182.02 372.93,186.32 C375.09,202.10 374.07,206.37 367.72,208.08 C364.89,208.84 363.00,208.83 361.13,208.06 C359.06,207.20 344.28,207.13 334.75,207.94 C333.31,208.06 334.01,211.70 335.79,213.31 C336.77,214.20 339.30,215.64 341.40,216.52 C344.60,217.86 346.08,217.94 350.37,216.98 C353.19,216.35 356.77,215.19 358.33,214.42 C363.95,211.61 369.00,213.29 369.00,217.98 C369.00,219.57 369.39,221.12 369.86,221.41 C371.56,222.47 372.08,231.22 370.58,233.52 C367.97,237.50 358.35,239.51 342.50,239.39 C330.09,239.30 327.86,239.02 322.91,236.89 C316.78,234.27 307.00,224.53 307.00,221.05 C307.00,219.99 306.60,218.87 306.12,218.57 C305.63,218.27 304.93,215.99 304.55,213.51 C304.18,211.03 303.51,209.00 303.06,209.00 C302.17,209.00 300.44,212.92 299.44,217.18 C299.10,218.65 297.96,220.63 296.91,221.58 C295.86,222.53 295.00,224.04 295.00,224.93 C295.00,227.48 292.37,230.61 287.41,233.96 C280.40,238.69 276.68,239.88 267.91,240.20 C262.88,240.38 259.44,240.97 258.77,241.77 C258.09,242.59 257.92,246.12 258.30,251.48 C259.02,261.68 258.12,263.14 250.04,264.88 C241.52,266.72 230.39,267.44 229.62,266.19 ZM 231.70 265.37 C232.09,265.75 233.55,265.85 234.95,265.57 C236.35,265.30 241.66,264.33 246.75,263.43 L 256.00 261.79 L 256.00 237.28 L 265.34 237.77 C273.96,238.22 275.16,238.04 280.87,235.48 C290.97,230.94 296.45,222.76 299.01,208.38 C300.57,199.59 299.83,182.52 297.58,175.29 C293.98,163.79 285.52,157.00 274.76,157.00 C268.36,157.00 263.76,158.56 258.66,162.44 C255.05,165.20 254.00,164.95 254.00,161.33 C254.00,159.02 253.88,159.00 242.50,159.00 L 231.00 159.00 L 231.00 211.83 C231.00,240.89 231.32,264.98 231.70,265.37 ZM 332.88 237.55 C340.95,239.22 350.84,238.59 359.88,235.84 C369.32,232.97 369.38,232.86 367.96,223.14 C367.31,218.66 366.58,215.00 366.35,215.00 C366.12,215.00 363.14,215.95 359.72,217.11 C351.78,219.79 340.27,220.06 336.59,217.65 C333.58,215.68 331.49,212.57 330.61,208.77 L 329.97 206.04 L 350.74 205.77 L 371.50 205.50 L 371.80 199.06 C372.18,191.09 369.66,178.23 366.50,172.00 C364.00,167.07 359.14,162.22 353.74,159.27 C351.20,157.88 348.13,157.50 339.50,157.50 C329.05,157.50 328.23,157.65 323.00,160.60 C312.13,166.72 306.18,178.00 305.26,194.19 C303.85,219.26 312.85,233.40 332.88,237.55 ZM 43.50 236.55 C46.83,237.50 52.33,237.88 60.00,237.69 C69.52,237.47 72.21,237.05 75.64,235.24 C88.19,228.66 92.69,212.23 85.27,200.06 C82.76,195.92 81.27,194.90 69.27,189.02 C61.99,185.45 55.80,181.93 55.52,181.19 C55.24,180.46 55.47,178.99 56.04,177.93 C57.56,175.08 67.00,175.31 75.52,178.40 C80.05,180.05 82.25,180.44 82.48,179.65 C83.47,176.32 85.06,162.90 84.56,162.09 C84.24,161.58 81.62,160.33 78.74,159.33 C71.62,156.85 51.23,156.81 45.87,159.26 C36.56,163.53 32.00,170.85 32.00,181.53 C32.00,194.20 37.07,199.55 56.23,207.09 C62.65,209.61 65.00,211.61 65.00,214.53 C65.00,217.07 63.58,218.44 60.00,219.34 C57.26,220.03 42.20,216.64 37.64,214.30 C36.06,213.49 34.41,213.21 33.98,213.66 C33.24,214.45 31.00,227.03 31.00,230.43 C31.00,232.09 35.48,234.29 43.50,236.55 ZM 120.34 237.90 C126.47,238.66 128.08,238.62 135.25,237.50 L 139.00 236.91 L 139.00 217.04 L 134.58 217.64 C130.73,218.17 129.83,217.92 127.58,215.67 L 125.00 213.09 L 125.00 177.00 L 131.50 177.00 C135.07,177.00 138.00,176.89 138.00,176.75 C138.00,176.61 138.68,172.68 139.50,168.00 C140.32,163.32 141.00,159.16 141.00,158.75 C141.00,158.34 137.40,158.00 133.00,158.00 L 125.00 158.00 L 125.00 147.00 C125.00,145.96 125.01,145.01 125.02,144.15 C125.05,139.85 125.07,137.64 123.99,136.72 C122.85,135.75 120.48,136.22 115.59,137.19 C114.66,137.38 113.64,137.58 112.52,137.80 L 103.54 139.52 L 102.21 147.01 C100.61,155.97 100.29,158.26 99.13,158.82 C98.73,159.02 98.24,159.01 97.56,159.00 C97.42,159.00 97.27,159.00 97.10,159.00 C93.51,159.00 92.44,160.35 91.61,166.00 C91.24,168.48 90.68,171.96 90.36,173.75 L 89.78 177.00 L 99.76 177.00 L 100.23 199.75 C100.72,223.90 101.17,226.43 105.81,231.34 C109.64,235.38 113.29,237.03 120.34,237.90 ZM 147.62 235.45 C148.15,236.83 149.97,237.02 160.37,236.78 L 172.50 236.50 L 173.03 184.89 L 177.27 182.97 C179.60,181.91 183.39,181.03 185.69,181.02 C188.00,181.01 190.18,180.51 190.55,179.91 C190.92,179.31 190.91,174.14 190.52,168.41 C189.83,158.39 189.71,157.97 187.31,157.36 C183.63,156.44 177.52,158.63 174.32,162.02 C170.78,165.76 170.00,165.76 170.00,162.00 L 170.00 159.00 L 159.11 159.00 C150.10,159.00 148.11,159.27 147.61,160.58 C146.81,162.67 146.82,233.36 147.62,235.45 ZM 201.21 151.33 C195.19,148.36 193.72,145.45 194.26,137.50 C194.90,128.12 196.30,125.43 201.65,123.39 C207.86,121.02 216.77,122.06 219.41,125.46 C221.88,128.63 223.98,134.68 223.94,138.50 C223.82,149.14 211.20,156.26 201.21,151.33 ZM 144.76 197.78 C144.98,167.88 144.80,162.14 143.61,161.68 C142.50,161.25 142.05,162.83 141.49,169.09 C140.71,177.91 139.85,179.00 133.68,179.00 C131.78,179.00 129.32,179.79 128.23,180.75 C126.37,182.38 126.28,183.26 126.97,193.81 C127.37,200.04 127.51,206.11 127.28,207.32 C127.05,208.52 127.35,210.80 127.95,212.38 C128.97,215.06 129.31,215.21 133.05,214.61 C136.54,214.05 137.38,214.31 139.49,216.58 C141.66,218.93 141.88,219.93 141.57,226.04 C141.37,229.81 141.48,233.14 141.80,233.46 C144.14,235.81 144.51,231.35 144.76,197.78 ZM 268.95 216.25 C265.29,219.95 264.45,220.25 260.50,219.28 C256.19,218.22 256.00,217.44 256.00,200.44 C256.00,191.47 256.44,182.97 256.98,181.56 C257.51,180.15 259.54,178.23 261.49,177.30 C269.04,173.70 273.94,179.36 274.79,192.68 C275.50,203.67 273.53,211.63 268.95,216.25 ZM 203.27 149.52 C207.44,151.33 210.25,151.34 214.51,149.56 C224.11,145.55 224.41,130.37 214.99,125.50 C210.38,123.11 203.80,124.38 199.44,128.49 C196.43,131.33 196.00,132.35 196.00,136.62 C196.01,142.63 198.79,147.57 203.27,149.52 ZM 267.38 213.69 C272.62,208.12 274.51,193.50 271.08,185.04 C268.94,179.76 267.25,178.47 263.67,179.37 C259.01,180.54 258.00,184.29 258.00,200.40 C258.00,213.16 258.21,215.02 259.75,215.92 C262.63,217.60 264.11,217.17 267.38,213.69 ZM 348.00 188.44 C348.00,189.74 346.48,190.00 339.00,190.00 C338.62,190.00 338.25,190.00 337.90,190.00 C333.31,190.01 331.22,190.01 330.49,189.01 C329.88,188.18 330.24,186.64 330.90,183.81 C330.96,183.55 331.02,183.28 331.09,183.00 C333.81,171.16 343.96,170.85 346.90,182.53 C347.51,184.92 348.00,187.59 348.00,188.44 ZM 341.56 188.00 C345.47,188.00 345.94,183.59 342.44,179.93 C337.82,175.12 334.77,176.27 333.70,183.24 C333.10,187.15 334.95,189.50 337.83,188.47 C338.56,188.21 340.24,188.00 341.56,188.00 Z" fill="rgb(111,100,227)"/>
<path d="M 231.70 265.37 C231.32,264.98 231.00,240.89 231.00,211.83 L 231.00 159.00 L 242.50 159.00 C253.88,159.00 254.00,159.02 254.00,161.33 C254.00,164.95 255.05,165.20 258.66,162.44 C263.76,158.56 268.36,157.00 274.76,157.00 C285.52,157.00 293.98,163.79 297.58,175.29 C299.83,182.52 300.57,199.59 299.01,208.38 C296.45,222.76 290.97,230.94 280.87,235.48 C275.16,238.04 273.96,238.22 265.34,237.77 L 256.00 237.28 L 256.00 249.54 L 256.00 261.79 L 246.75 263.43 C241.66,264.33 236.35,265.30 234.95,265.57 C233.55,265.85 232.09,265.75 231.70,265.37 ZM 268.95 216.25 C273.53,211.63 275.50,203.67 274.79,192.68 C273.94,179.36 269.04,173.70 261.49,177.30 C259.54,178.23 257.51,180.15 256.98,181.56 C256.44,182.97 256.00,191.47 256.00,200.44 C256.00,217.44 256.19,218.22 260.50,219.28 C264.45,220.25 265.29,219.95 268.95,216.25 ZM 120.34 237.90 C113.29,237.03 109.64,235.38 105.81,231.34 C101.17,226.43 100.72,223.90 100.23,199.75 L 99.76 177.00 L 94.77 177.00 L 89.78 177.00 L 90.36 173.75 C90.68,171.96 91.24,168.48 91.61,166.00 C92.44,160.35 93.51,159.00 97.10,159.00 C100.24,159.00 99.95,159.69 102.21,147.01 L 103.54 139.52 L 112.52 137.80 C126.21,135.17 125.00,134.28 125.00,147.00 L 125.00 158.00 L 133.00 158.00 C137.40,158.00 141.00,158.34 141.00,158.75 C141.00,159.16 140.32,163.32 139.50,168.00 C138.68,172.68 138.00,176.61 138.00,176.75 C138.00,176.89 135.07,177.00 131.50,177.00 L 125.00 177.00 L 125.00 195.05 L 125.00 213.09 L 127.58 215.67 C129.83,217.92 130.73,218.17 134.58,217.64 L 139.00 217.04 L 139.00 226.97 L 139.00 236.91 L 135.25 237.50 C128.08,238.62 126.47,238.66 120.34,237.90 ZM 332.88 237.55 C312.85,233.40 303.85,219.26 305.26,194.19 C306.18,178.00 312.13,166.72 323.00,160.60 C328.23,157.65 329.05,157.50 339.50,157.50 C348.13,157.50 351.20,157.88 353.74,159.27 C359.14,162.22 364.00,167.07 366.50,172.00 C369.66,178.23 372.18,191.09 371.80,199.06 L 371.50 205.50 L 350.74 205.77 L 329.97 206.04 L 330.61 208.77 C331.49,212.57 333.58,215.68 336.59,217.65 C340.27,220.06 351.78,219.79 359.72,217.11 C363.14,215.95 366.12,215.00 366.35,215.00 C366.58,215.00 367.31,218.66 367.96,223.14 C369.38,232.86 369.32,232.97 359.88,235.84 C350.84,238.59 340.95,239.22 332.88,237.55 ZM 348.00 188.44 C348.00,187.59 347.51,184.92 346.90,182.53 C343.96,170.85 333.81,171.16 331.09,183.00 C329.41,190.29 329.08,190.00 339.00,190.00 C346.48,190.00 348.00,189.74 348.00,188.44 ZM 43.50 236.55 C35.48,234.29 31.00,232.09 31.00,230.43 C31.00,227.03 33.24,214.45 33.98,213.66 C34.41,213.21 36.06,213.49 37.64,214.30 C42.20,216.64 57.26,220.03 60.00,219.34 C63.58,218.44 65.00,217.07 65.00,214.53 C65.00,211.61 62.65,209.61 56.23,207.09 C37.07,199.55 32.00,194.20 32.00,181.53 C32.00,170.85 36.56,163.53 45.87,159.26 C51.23,156.81 71.62,156.85 78.74,159.33 C81.62,160.33 84.24,161.58 84.56,162.09 C85.06,162.90 83.47,176.32 82.48,179.65 C82.25,180.44 80.05,180.05 75.52,178.40 C67.00,175.31 57.56,175.08 56.04,177.93 C55.47,178.99 55.24,180.46 55.52,181.19 C55.80,181.93 61.99,185.45 69.27,189.02 C81.27,194.90 82.76,195.92 85.27,200.06 C92.69,212.23 88.19,228.66 75.64,235.24 C72.21,237.05 69.52,237.47 60.00,237.69 C52.33,237.88 46.83,237.50 43.50,236.55 ZM 147.62 235.45 C146.82,233.36 146.81,162.67 147.61,160.58 C148.11,159.27 150.10,159.00 159.11,159.00 L 170.00 159.00 L 170.00 162.00 C170.00,165.76 170.78,165.76 174.32,162.02 C177.52,158.63 183.63,156.44 187.31,157.36 C189.71,157.97 189.83,158.39 190.52,168.41 C190.91,174.14 190.92,179.31 190.55,179.91 C190.18,180.51 188.00,181.01 185.69,181.02 C183.39,181.03 179.60,181.91 177.27,182.97 L 173.03 184.89 L 172.77 210.69 L 172.50 236.50 L 160.37 236.78 C149.97,237.02 148.15,236.83 147.62,235.45 ZM 196.46 235.75 C196.19,235.06 196.09,217.62 196.24,197.00 L 196.50 159.50 L 209.00 159.22 L 221.50 158.94 L 221.23 197.97 L 220.95 237.00 L 208.95 237.00 C200.24,237.00 196.80,236.65 196.46,235.75 ZM 203.27 149.52 C198.79,147.57 196.01,142.63 196.00,136.62 C196.00,132.35 196.43,131.33 199.44,128.49 C203.80,124.38 210.38,123.11 214.99,125.50 C224.41,130.37 224.11,145.55 214.51,149.56 C210.25,151.34 207.44,151.33 203.27,149.52 Z" fill="rgb(252,252,252)"/>
</g>
</svg>